<svg xmlns="http://www.w3.org/2000/svg" version="1.1" xmlns:xlink="http://www.w3.org/1999/xlink" xmlns:svgjs="http://svgjs.dev/svgjs" width="100%" height="100%" viewBox="0 0 1000 600"><rect width="1000" height="600" x="0" y="0" fill="orange"/><g><rect width="333.3333333333333" height="333.3333333333333" rx="13.333333333333334" ry="13.333333333333334" y="169.45286438523732" fill="black" transform="matrix(0.8490079327105939,0,0,0.8490079327105938,0,14.63182855102204)" x="147.2306671142578"/><path d="M201.06957648998596 387.579992814783L201.06957648998596 387.579992814783Q201.9131904395701 381.37534828235783 204.74337917365875 370.40836693776424Q207.57356790774742 359.468598946383 211.98213112815478 347.0320965283202L211.98213112815478 347.0320965283202Q222.0238584635271 318.51250236173445 235.793815188997 296.22476608078614L235.793815188997 296.22476608078614Q237.69874991386436 293.1496571677859 240.665005414015 292.6870301631752L240.665005414015 292.6870301631752Q244.88307516193564 292.11554974571504 248.09425084099777 292.11554974571504Q251.3054265200599 292.11554974571504 253.83626836881228 292.8230969292372Q256.3671102175647 293.53064411275943 257.8094179378214 294.70081830089214L257.8094179378214 294.70081830089214Q260.66682002512243 297.0955933835826 258.7618853002551 299.76250199839694L258.7618853002551 299.76250199839694Q241.42697930396196 325.88732108229243 228.52784988128857 363.4689618686045L228.52784988128857 363.4689618686045Q223.6294463030582 377.83761236474703 222.67697894062448 383.4163497732872Q221.7245115781908 389.02230053503973 221.28909792679255 391.09051537918145Q220.88089762860668 393.1315168701107 220.88089762860668 394.6554646500047L220.88089762860668 394.6554646500047Q220.88089762860668 397.812213622642 224.88126055082816 397.812213622642Q228.90883682626205 397.812213622642 233.8888804641296 395.9617056041995Q238.8417107487848 394.0839842325444 244.58372827659932 390.7095284342079Q250.32574580441383 387.3078592826591 256.50317698362664 382.4094557044287Q262.6806081628394 377.53826547941065 268.61311916314065 371.46968771304745Q274.54563016344196 365.40110994668424 279.7978073334334 358.3256381114625Q285.07719785663727 351.22295292302846 288.99592071922154 343.3855071978599L288.99592071922154 343.3855071978599Q297.70419374718676 326.15945461441623 297.70419374718676 309.42324238879576L297.70419374718676 309.42324238879576Q297.70419374718676 286.4551722775377 279.03583344348647 278.91707343770537L279.03583344348647 278.91707343770537Q272.5318420257249 276.3318048825282 265.51079689692807 276.3318048825282Q258.46253841491875 276.3318048825282 253.59134818990077 277.2298455385371Q248.72015796488276 278.127886194546 244.20274133162584 279.7606873872895L244.20274133162584 279.7606873872895Q235.1134813586872 283.0262897727764 228.90883682626205 288.4689604152546L228.90883682626205 288.4689604152546Q227.27603563351857 289.42142777768834 224.99011396367774 289.42142777768834Q222.67697894062448 289.42142777768834 220.06449703223495 288.08797347028116Q217.424801770633 286.754519162874 215.3293735732789 284.74073102515706L215.3293735732789 284.74073102515706Q210.53982340789807 280.0600342726258 211.49229077033175 275.760324465068L211.49229077033175 275.760324465068Q212.553611545615 269.63731999228 229.86130418869573 265.11990335902306L229.86130418869573 265.11990335902306Q244.39323480411258 261.3916739689255 259.14287224522855 261.3916739689255Q273.86529633313216 261.3916739689255 285.67589162730985 265.4192502443594Q297.5137002747 269.44682651979326 304.86130564204564 276.2229514696786L304.86130564204564 276.2229514696786Q318.6584757207279 289.0404408327148 318.6584757207279 310.56620322371623L318.6584757207279 310.56620322371623Q318.6584757207279 339.08579739030205 298.9287946417444 365.591603419171L298.9287946417444 365.591603419171Q280.8591281087166 390.1652613699601 255.87726985974163 402.90111067335914L255.87726985974163 402.90111067335914Q239.7125380515813 411.11954334350133 226.13307479859816 411.11954334350133L226.13307479859816 411.11954334350133Q215.51986704576564 411.11954334350133 207.84570143987133 404.91489881107606L207.84570143987133 404.91489881107606Q199.62726876972923 398.302053980465 201.06957648998596 387.579992814783ZM402.63888373416677 274.3180167448113L402.63888373416677 274.3180167448113Q389.8213943711306 274.3180167448113 376.70455812275804 305.6950129986982L376.70455812275804 305.6950129986982L360.83917319993407 345.8619223401874Q345.7085488138446 384.23275036965885 331.8569520287375 396.2882658427481L331.8569520287375 396.2882658427481Q351.74991322699543 389.321647420376 378.44621272835104 387.0085123973228L378.44621272835104 387.0085123973228Q382.2560821780859 386.6275254523493 385.9026715085463 386.6275254523493Q389.5492608390067 386.6275254523493 393.7129038805025 387.82491299369445Q397.84933356878594 389.02230053503973 400.9244424817862 391.4170756177302L400.9244424817862 391.4170756177302Q407.5372873123972 396.5876127280845 407.5372873123972 405.9490062331469L407.5372873123972 405.9490062331469Q407.5372873123972 411.11954334350133 403.70020450945003 411.11954334350133L403.70020450945003 411.11954334350133Q401.60477631209596 411.11954334350133 399.590988174379 410.058222568218Q397.577200036662 409.02411514614715 395.0463581879097 408.07164778371344Q392.51551633915733 407.0919670680674 389.1682738940332 406.2483531184833L389.1682738940332 406.2483531184833Q381.49410828813893 404.2345649807664 373.41174238405875 404.2345649807664Q365.3293764799786 404.2345649807664 357.87291769978344 405.32309910926193Q350.4164589195883 406.43884659097006 343.80361408897727 407.69066083874003L343.80361408897727 407.69066083874003L331.4759650837641 410.058222568218Q325.81558761558676 411.11954334350133 322.9037588218609 411.11954334350133Q319.991930028135 411.11954334350133 318.4135555418163 409.8405157425189Q316.8351810554976 408.5342747883241 315.47451339487816 406.5204866506072L315.47451339487816 406.5204866506072Q312.61711130757703 402.1391367834122 312.61711130757703 399.36337475574834L312.61711130757703 399.36337475574834Q312.61711130757703 394.84595812249137 314.71253950493116 393.62135722793386L314.71253950493116 393.62135722793386Q322.95818552828564 389.2127940075265 333.2720463957819 359.468598946383L333.2720463957819 359.468598946383Q342.85114672654356 331.90147214223083 346.33445593772956 322.5400786371683Q349.8449785021281 313.1514717788934 354.0358348968363 304.19827857201665Q358.2539046447569 295.27229871835243 363.1795215761997 287.4076396399714Q368.10513850764244 279.57019391480276 374.0376495079438 273.746536327351L374.0376495079438 273.746536327351Q386.77349881134273 261.11954043680157 402.0674033167066 261.11954043680157L402.0674033167066 261.11954043680157Q412.8711045420258 261.11954043680157 420.2459232625838 270.39929388222697L420.2459232625838 270.39929388222697Q426.940408152832 278.91707343770537 426.940408152832 290.1017616079981L426.940408152832 290.1017616079981Q426.940408152832 305.3140260537248 415.6468665696897 321.58761127473457L415.6468665696897 321.58761127473457Q409.0612350922911 331.05785819264673 401.4142828396092 335.3575680002045L401.4142828396092 335.3575680002045Q397.6588400962992 337.3713561379214 394.6653712429362 337.3713561379214Q391.6446890363608 337.3713561379214 389.35876736651994 336.17396859657623Q387.0456323434667 334.97658105523095 385.33119109108605 333.23492644963795L385.33119109108605 333.23492644963795Q381.7934551734752 329.5066970595404 381.7934551734752 326.5132282061774Q381.7934551734752 323.492545999602 383.3174029533691 322.5400786371683L383.3174029533691 322.5400786371683Q394.8830780686353 315.35575338909706 402.9382306195031 305.3140260537248L402.9382306195031 305.3140260537248Q411.6465036474682 294.5103248284055 411.6465036474682 284.41417078660834Q411.6465036474682 274.3180167448113 402.63888373416677 274.3180167448113Z " fill="orange" transform="matrix(0.8490079327105939,0,0,0.8490079327105938,0,14.63182855102204)"/><path d="M564.0962720027162 389.27066519437284L564.0962720027162 389.27066519437284Q564.8756883006216 383.5381840355853 567.4905042677879 373.40577216281605Q570.1053202349541 363.2985027512696 574.17839895304 351.8083979724717L574.17839895304 351.8083979724717Q583.4559671442357 325.4590986110272 596.1780525229483 304.86742286959293L596.1780525229483 304.86742286959293Q597.9380248085411 302.02632475142184 600.6785530818211 301.59890291063505L600.6785530818211 301.59890291063505Q604.5756345713477 301.0709112249573 607.5424449956324 301.0709112249573Q610.5092554199173 301.0709112249573 612.8475043136332 301.7246152167488Q615.1857532073493 302.37831920854046 616.518303652155 303.4594450411188L616.518303652155 303.4594450411188Q619.1582620805441 305.671981628721 617.3982897949514 308.1359428285507L617.3982897949514 308.1359428285507Q601.3825419960581 332.27270560239305 589.4650153764735 366.99444455101417L589.4650153764735 366.99444455101417Q584.939372356378 380.2696640766275 584.0593862135818 385.4238686272917Q583.1794000707854 390.6032156391787 582.7771206912214 392.5140426921079Q582.39998377288 394.39972728381434 582.39998377288 395.8077051122885L582.39998377288 395.8077051122885Q582.39998377288 398.72423061412775 586.0959255726247 398.72423061412775Q589.817009833592 398.72423061412775 594.4180802373558 397.0145432509806Q598.9940081798966 395.2797134266107 604.2990674978973 392.1620482349894Q609.6041268158981 389.0192405821453 615.311465513463 384.49359756204984Q621.0188042110278 379.9930970031772 626.4998607575878 374.3863281505034Q631.9809173041479 368.7795592978296 636.8334123201391 362.242519379914Q641.7110497973531 355.68033700077564 645.3315642134294 348.43930816862286L645.3315642134294 348.43930816862286Q653.3771518047101 332.5241302146206 653.3771518047101 317.0615165626278L653.3771518047101 317.0615165626278Q653.3771518047101 295.8412792906248 636.129423405902 288.87681753192237L636.129423405902 288.87681753192237Q630.1203751736641 286.4882837157609 623.6336201781941 286.4882837157609Q617.1217227215011 286.4882837157609 612.6212221626286 287.3179849361117Q608.1207216037558 288.14768615646256 603.9470730407788 289.65623382982767L603.9470730407788 289.65623382982767Q595.5494909923796 292.673329176558 589.817009833592 297.70182142110843L589.817009833592 297.70182142110843Q588.3084621602269 298.5818075639048 586.1964954175157 298.5818075639048Q584.0593862135818 298.5818075639048 581.6457099361975 297.3498269639899Q579.2068911975905 296.11784636407504 577.2709216834385 294.2573042335914L577.2709216834385 294.2573042335914Q572.8458485082341 289.93280090327795 573.7258346510305 285.9602920300831L573.7258346510305 285.9602920300831Q574.7063906387177 280.30323825496373 590.6969959763883 276.1295896919869L590.6969959763883 276.1295896919869Q604.1230702693381 272.68507250446976 617.7502842520701 272.68507250446976Q631.3523557735791 272.68507250446976 642.2641839442535 276.4061567654371Q653.2011545761509 280.1272410264045 659.9896191062941 286.3877138708699L659.9896191062941 286.3877138708699Q672.7368469462295 298.2298131067863 672.7368469462295 318.1174999339834L672.7368469462295 318.1174999339834Q672.7368469462295 344.46679929542796 654.5085625597341 368.9555565263889L654.5085625597341 368.9555565263889Q637.8139683078264 391.65919901053434 614.7331889053396 403.42587086278246L614.7331889053396 403.42587086278246Q599.7985669390248 411.01889415205375 587.2524787888713 411.01889415205375L587.2524787888713 411.01889415205375Q577.4469189119977 411.01889415205375 570.3567448471816 405.2864129932661L570.3567448471816 405.2864129932661Q562.7637215579105 399.17679491613734 564.0962720027162 389.27066519437284ZM744.9459955779745 386.6307067659838L744.9459955779745 386.6307067659838Q744.9459955779745 394.75172174093285 750.678476736762 394.75172174093285L750.678476736762 394.75172174093285Q754.650985609957 394.75172174093285 757.2658015771234 393.51974114101796Q759.8806175442895 392.2877605411032 760.7606036870858 392.2877605411032L760.7606036870858 392.2877605411032Q762.6211458175695 392.2877605411032 762.6211458175695 394.2237300552551L762.6211458175695 394.2237300552551Q762.6211458175695 401.84189580574906 754.650985609957 407.2978098910864L754.650985609957 407.2978098910864Q746.2785460227805 413.0554335110966 737.5038270560398 410.13890800925736L737.5038270560398 410.13890800925736Q731.7713458972522 408.1023686502144 729.0308176239722 401.38933150373947L729.0308176239722 401.38933150373947Q727.6982671791665 397.94481431622245 727.6982671791665 395.10371619805136L727.6982671791665 395.10371619805136Q727.6982671791665 390.5277882555104 728.5782533219627 385.3987261660689L728.5782533219627 385.3987261660689Q720.3566685021227 402.19389026286757 708.1625748090877 408.55493295222396L708.1625748090877 408.55493295222396Q703.3100797930966 411.01889415205375 697.8290232465364 411.01889415205375Q692.3479666999764 411.01889415205375 688.325172904336 408.7812151032287Q684.3023791086956 406.518393593181 681.4864234517473 402.5458847199861L681.4864234517473 402.5458847199861Q675.7287998317371 394.2237300552551 676.2567915174149 381.67764190510155L676.2567915174149 381.67764190510155Q676.7847832030926 365.93846117965853 685.5343597086106 350.82784198478436L685.5343597086106 350.82784198478436Q693.5799472998914 336.69777877759753 705.8746108378174 327.7470625822976L705.8746108378174 327.7470625822976Q718.1692743757432 318.6454916196613 728.854820395413 318.6454916196613Q739.5403664150828 318.6454916196613 746.0774063329985 328.4761939577574L746.0774063329985 328.4761939577574Q752.1870244101273 318.6454916196613 756.8635221975593 318.6454916196613L756.8635221975593 318.6454916196613Q761.9171569033325 318.6454916196613 764.4816879480533 320.5060337501449L764.4816879480533 320.5060337501449Q769.3341829640445 324.051120782553 767.9262051355703 326.69107921094206L767.9262051355703 326.69107921094206Q745.72541187588 372.1235066404557 745.1219928065337 383.26161696213495L745.1219928065337 383.26161696213495Q744.9459955779745 384.87073448039115 744.9459955779745 386.6307067659838ZM695.8930537323846 386.9827012231024L695.8930537323846 386.9827012231024Q695.8930537323846 397.59281985910394 702.6815182625277 397.59281985910394L702.6815182625277 397.59281985910394Q707.9111501968601 397.59281985910394 715.5041734861314 388.7426735086951L715.5041734861314 388.7426735086951Q726.6422838078107 375.74402105653206 735.2158630847695 353.7443674866236L735.2158630847695 353.7443674866236Q737.9563913580495 346.85533311158946 739.8169334885332 339.9662987365553L739.8169334885332 339.9662987365553Q739.4649390314145 333.9572505043175 734.7632987827598 331.11615238614644L734.7632987827598 331.11615238614644Q733.1793237257265 330.1355963984591 730.0365160728824 330.1355963984591Q726.9188508812612 330.1355963984591 722.7200598570615 332.4487028309523Q718.5212688328617 334.7366668022228 714.5739024208896 338.7091756754177Q710.6516784701402 342.7068270098353 707.2323037438458 348.13759863394984Q703.8380714787744 353.56837025806436 701.2735404340536 359.92941294742076L701.2735404340536 359.92941294742076Q695.8930537323846 373.5566269301526 695.8930537323846 386.9827012231024ZM775.6197982697325 401.5653287322987L775.6197982697325 401.5653287322987Q774.2872478249266 398.64880323045946 774.2872478249266 394.67629435726457Q774.2872478249266 390.70378548406967 775.5192284248416 385.8764329293013Q776.7512090247563 381.0490803745328 778.712321000131 376.0205881299823Q780.6482905142831 370.99209588543187 783.0368243304446 365.7624639510993L783.0368243304446 365.7624639510993L787.5373248893171 355.50433977221627Q796.2869013948351 335.2646584879006 793.9989374235646 331.6441440718242L793.9989374235646 331.6441440718242Q792.9429540522091 329.95959916989983 789.9258587054786 328.30019672919815L789.9258587054786 328.30019672919815Q788.9704451790141 327.6716351986294 788.9704451790141 326.1128026028187Q788.9704451790141 324.5791124682308 790.2527107013744 323.17113463975664Q791.5349762237348 321.7380143500598 793.6469429664461 320.6820309787042L793.6469429664461 320.6820309787042Q797.8960189130913 318.6454916196613 802.2205222434046 318.6454916196613Q806.5450255737181 318.6454916196613 808.8078470837658 319.57576268490305Q811.0455261325907 320.5060337501449 812.5540738059559 321.91401157861907L812.5540738059559 321.91401157861907Q815.3951719241269 324.8305370804583 815.3951719241269 329.0041856434353Q815.3951719241269 333.15269174518943 813.7860544058707 338.3571812182991Q812.2020793488374 343.5868131526317 809.8135455326759 349.31929431141924Q807.4250117165144 355.0769179314295 804.6090560595661 361.08596616366736L804.6090560595661 361.08596616366736L799.3794241252336 372.65149832613355Q793.8229401950053 385.4741535497372 793.8229401950053 389.62265965149135L793.8229401950053 389.62265965149135Q793.8229401950053 397.7688170876632 799.5554213537929 397.7688170876632L799.5554213537929 397.7688170876632Q814.3391885527714 397.7688170876632 827.2372711600434 380.2696640766275L827.2372711600434 380.2696640766275Q834.7548670656462 370.0869672814127 838.0233870246042 358.1694406618281L838.0233870246042 358.1694406618281Q839.5067922367465 352.5123868867087 839.5067922367465 347.8610315604996Q839.5067922367465 343.23481869551307 839.2050827020736 340.14229596511456Q838.9033731674004 337.04977323471604 838.1993842531634 334.66123941855454L838.1993842531634 334.66123941855454Q837.0428310369167 330.4121634719094 834.3023027636367 327.3196407415108L834.3023027636367 327.3196407415108Q832.4417606331532 325.0065343090176 835.9868476655612 321.91401157861907L835.9868476655612 321.91401157861907Q839.8839291550877 318.6454916196613 847.0243881423495 318.6454916196613L847.0243881423495 318.6454916196613Q851.449461317554 318.6454916196613 854.8185511214027 322.81914018263814L854.8185511214027 322.81914018263814Q859.0424846068253 327.7470625822976 859.0424846068253 336.99948831227056Q859.0424846068253 346.2267715810206 856.3019563335453 355.1272028538751Q853.561428060265 364.0024916655066 848.809502889165 372.17379156290116Q844.032435256842 380.3450914602957 837.5205378001491 387.4101230638892Q831.0337828046789 394.5002971287053 823.5161868990759 399.7047866018151L823.5161868990759 399.7047866018151Q807.4250117165144 411.01889415205375 791.3338365339529 411.01889415205375L791.3338365339529 411.01889415205375Q779.7683043714868 411.01889415205375 775.6197982697325 401.5653287322987ZM915.4370251294589 297.9281035721133Q913.5010556153069 300.01492785360165 911.0370944154771 301.297193375962Q908.5479907544246 302.5543164370997 905.8074624811449 302.8811684329954Q903.0669342078646 303.18287796766845 900.6532579304804 302.02632475142184Q898.2144391918736 300.89491399639803 896.4544669062808 298.75780479246407L896.4544669062808 298.75780479246407Q892.6328128004224 294.3578740784824 892.6328128004224 289.8322310583869Q892.6328128004224 285.33173049951426 894.091075551342 283.06890898946654Q895.5493383022616 280.8312299406416 897.7618748898639 279.39810965094466L897.7618748898639 279.39810965094466Q902.0109508365091 276.65758137766466 905.7571775586993 276.65758137766466Q909.5285467421121 276.65758137766466 911.5902285623778 277.1855730633425Q913.6770528438664 277.73870721024304 915.4370251294589 278.97068781015787L915.4370251294589 278.97068781015787Q919.7866709209951 281.8872133119972 919.7866709209951 286.0860043361969Q919.7866709209951 290.2847953603965 918.579832782303 293.075608556122Q917.3981371048336 295.8412792906248 915.4370251294589 297.9281035721133ZM897.3344530490771 393.62031098590904L897.3344530490771 393.62031098590904Q899.6224170203476 393.62031098590904 899.6224170203476 396.6122638714166L899.6224170203476 396.6122638714166Q899.6224170203476 400.5847727446115 896.0019026042713 404.8338486912566L896.0019026042713 404.8338486912566Q890.6968432862706 411.01889415205375 881.7712695521933 411.01889415205375L881.7712695521933 411.01889415205375Q871.5131453733103 411.01889415205375 867.7166337286748 402.72188194854544L867.7166337286748 402.72188194854544Q866.3086559002005 399.80535644670607 866.3086559002005 395.63170788372923Q866.3086559002005 391.4832017819751 867.7669186511204 386.40442461497906Q869.22518140204 381.32564744798304 871.3874330671966 375.71887859530926Q873.5496847323533 370.0869672814127 876.114215777074 364.35448612262513L876.114215777074 364.35448612262513L880.7907135645061 353.21637580094585Q885.9197756539476 340.7457150344606 885.9197756539476 336.7732061612657Q885.9197756539476 332.8006972880708 885.0900744335967 331.51843176571055Q884.2352307520231 330.23616624335017 883.2798172255585 329.53217732911304L883.2798172255585 329.53217732911304L881.4947024787431 328.30019672919815Q880.6147163359468 327.6716351986294 880.6147163359468 326.1128026028187Q880.6147163359468 324.5791124682308 881.8215544746389 323.17113463975664Q883.0032501521083 321.7380143500598 884.964362127483 320.6820309787042L884.964362127483 320.6820309787042Q888.9368710006778 318.6454916196613 894.2419303186786 318.6454916196613L894.2419303186786 318.6454916196613Q907.2154403096189 318.6454916196613 907.2154403096189 325.4590986110272L907.2154403096189 325.4590986110272Q907.2154403096189 333.40411635741697 903.0669342078646 343.6119556138544Q898.9184281061106 353.8449373315147 896.0019026042713 360.10541017598L896.0019026042713 360.10541017598L890.6968432862706 372.2995038690149Q884.8637922825918 385.75072062318753 884.8637922825918 391.65919901053434L884.8637922825918 391.65919901053434Q884.8637922825918 395.55628050006095 888.7608737721185 395.55628050006095L888.7608737721185 395.55628050006095Q892.5573854167541 395.55628050006095 894.4933549309061 394.5757245123736Q896.4544669062808 393.62031098590904 897.3344530490771 393.62031098590904ZM1007.8104276618513 392.2877605411032L1007.8104276618513 392.2877605411032Q1009.6709697923351 392.2877605411032 1009.6709697923351 394.2237300552551L1009.6709697923351 394.2237300552551Q1009.6709697923351 401.84189580574906 1001.8013794296136 407.2978098910864L1001.8013794296136 407.2978098910864Q996.5968899565038 411.01889415205375 991.9455346302947 411.01889415205375Q987.3193217653082 411.01889415205375 984.578793492028 409.9629107806981Q981.838265218748 408.9069274093425 979.6257286311458 406.59382097684926L979.6257286311458 406.59382097684926Q974.6726637702635 401.2887616588485 974.6726637702635 392.01119346765284L974.6726637702635 392.01119346765284Q974.6726637702635 390.1506513371692 975.3766526845008 386.10271508030604L975.3766526845008 386.10271508030604Q968.2110512360163 397.14025555709435 963.0819891465748 401.640756115967L963.0819891465748 401.640756115967Q952.7484375840235 411.01889415205375 942.842307862259 411.01889415205375L942.842307862259 411.01889415205375Q927.2036969817071 411.01889415205375 922.3512019657159 396.8888309448668L922.3512019657159 396.8888309448668Q920.5660872189004 391.65919901053434 920.5660872189004 383.7896086478128Q920.5660872189004 375.9200182850913 922.9546210350619 367.89957315503324Q925.3431548512234 359.8539855637525 929.4665184917548 352.587814270377Q933.5647396710634 345.34678543822434 938.9955112951778 339.1114550549817Q944.4514253805152 332.8761246717391 950.4604736127529 328.30019672919815L950.4604736127529 328.30019672919815Q963.358556220025 318.6454916196613 973.7926776274672 318.6454916196613Q984.2267990349097 318.6454916196613 990.4872718793748 327.14364351295154L990.4872718793748 327.14364351295154Q1005.8744581476993 274.4701872512852 1013.6434786655299 264.99147937030756L1013.6434786655299 264.99147937030756Q1016.9119986244879 261.1195403420037 1020.5325130405641 261.1195403420037L1020.5325130405641 261.1195403420037Q1026.566703734025 261.1195403420037 1029.6592264644232 264.5640575295207L1029.6592264644232 264.5640575295207Q1030.6146399908876 265.69546828454463 1030.6146399908876 266.85202150079124Q1030.6146399908876 268.00857471703785 1029.2066621624135 271.10109744743636Q1027.7986843339395 274.19362017783493 1025.0581560606593 281.08265455286914L1025.0581560606593 281.08265455286914Q1017.1885656979379 301.8503275228626 1013.9954731226486 311.50503263239955L1013.9954731226486 311.50503263239955Q1005.8744581476993 336.144644630697 1003.0333600295284 345.4473552831153L1003.0333600295284 345.4473552831153L998.1808650135371 361.7899550779044Q991.8952497078491 383.6136114192536 991.8952497078491 389.54723226782306Q991.8952497078491 395.45571065516987 996.2448954993853 395.45571065516987L996.2448954993853 395.45571065516987Q1000.2174043725801 395.45571065516987 1002.6059381887416 394.39972728381434L1002.6059381887416 394.39972728381434L1005.9498855313676 392.81575222678094Q1006.9304415190551 392.2877605411032 1007.8104276618513 392.2877605411032ZM947.0913838089042 397.7688170876632L947.0913838089042 397.7688170876632Q956.1929547715407 397.7688170876632 967.9596266237887 379.9930970031772L967.9596266237887 379.9930970031772Q980.2291477004918 361.6139578493451 985.106785177706 339.9662987365553L985.106785177706 339.9662987365553Q984.7547907205873 333.9572505043175 980.0531504719328 331.11615238614644L980.0531504719328 331.11615238614644Q978.4691754148993 330.1355963984591 975.2509403783869 330.1355963984591Q972.0075628806518 330.1355963984591 967.7333444727839 332.4989877533978Q963.4339836036933 334.8372366471138 959.4111898080529 338.8097455203087Q955.3883960124125 342.7822543935036 951.9187363636726 348.13759863394984Q948.4239342537102 353.4678004131734 945.8594032089894 359.50199110663397L945.8594032089894 359.50199110663397Q940.2777768175382 372.57607094246526 940.2777768175382 385.1724440150642Q940.2777768175382 397.7688170876632 947.0913838089042 397.7688170876632Z " fill="white" transform="matrix(0.8490079327105939,0,0,0.8490079327105938,0,14.63182855102204)"/></g></svg>